<?xml version="1.0" encoding="UTF-8" standalone="no"?>
<!DOCTYPE svg PUBLIC "-//W3C//DTD SVG 1.1//EN"
 "http://www.w3.org/Graphics/SVG/1.1/DTD/svg11.dtd">
<!-- Generated by graphviz version 3.0.0 (20220226.1711)
 -->
<!-- Title: Tree Pages: 1 -->
<svg width="2141pt" height="552pt"
 viewBox="0.00 0.00 2141.00 552.00" xmlns="http://www.w3.org/2000/svg" xmlns:xlink="http://www.w3.org/1999/xlink">
<g id="graph0" class="graph" transform="scale(1 1) rotate(0) translate(4 548)">
<title>Tree</title>
<polygon fill="white" stroke="transparent" points="-4,4 -4,-548 2137,-548 2137,4 -4,4"/>
<!-- 0 -->
<g id="node1" class="node">
<title>0</title>
<polygon fill="#64b2eb" stroke="black" points="1157,-544 1010,-544 1010,-461 1157,-461 1157,-544"/>
<text text-anchor="middle" x="1083.5" y="-528.8" font-family="Times,serif" font-size="14.00">Aircraft.damage &lt;= 2.5</text>
<text text-anchor="middle" x="1083.5" y="-513.8" font-family="Times,serif" font-size="14.00">gini = 0.291</text>
<text text-anchor="middle" x="1083.5" y="-498.8" font-family="Times,serif" font-size="14.00">samples = 32542</text>
<text text-anchor="middle" x="1083.5" y="-483.8" font-family="Times,serif" font-size="14.00">value = [5757, 26785]</text>
<text text-anchor="middle" x="1083.5" y="-468.8" font-family="Times,serif" font-size="14.00">class = Non&#45;Fatal</text>
</g>
<!-- 1 -->
<g id="node2" class="node">
<title>1</title>
<polygon fill="#40a1e6" stroke="black" points="895,-425 722,-425 722,-342 895,-342 895,-425"/>
<text text-anchor="middle" x="808.5" y="-409.8" font-family="Times,serif" font-size="14.00">Broad.phase.of.flight &lt;= 8.5</text>
<text text-anchor="middle" x="808.5" y="-394.8" font-family="Times,serif" font-size="14.00">gini = 0.068</text>
<text text-anchor="middle" x="808.5" y="-379.8" font-family="Times,serif" font-size="14.00">samples = 24870</text>
<text text-anchor="middle" x="808.5" y="-364.8" font-family="Times,serif" font-size="14.00">value = [870, 24000]</text>
<text text-anchor="middle" x="808.5" y="-349.8" font-family="Times,serif" font-size="14.00">class = Non&#45;Fatal</text>
</g>
<!-- 0&#45;&gt;1 -->
<g id="edge1" class="edge">
<title>0&#45;&gt;1</title>
<path fill="none" stroke="black" d="M1009.81,-470.15C977.52,-456.41 939.21,-440.11 904.71,-425.43"/>
<polygon fill="black" stroke="black" points="905.67,-422.04 895.09,-421.34 902.92,-428.48 905.67,-422.04"/>
<text text-anchor="middle" x="904.44" y="-440.83" font-family="Times,serif" font-size="14.00">True</text>
</g>
<!-- 16 -->
<g id="node17" class="node">
<title>16</title>
<polygon fill="#f4c9aa" stroke="black" points="1433.5,-425 1273.5,-425 1273.5,-342 1433.5,-342 1433.5,-425"/>
<text text-anchor="middle" x="1353.5" y="-409.8" font-family="Times,serif" font-size="14.00">Weather.Condition &lt;= 1.5</text>
<text text-anchor="middle" x="1353.5" y="-394.8" font-family="Times,serif" font-size="14.00">gini = 0.462</text>
<text text-anchor="middle" x="1353.5" y="-379.8" font-family="Times,serif" font-size="14.00">samples = 7672</text>
<text text-anchor="middle" x="1353.5" y="-364.8" font-family="Times,serif" font-size="14.00">value = [4887, 2785]</text>
<text text-anchor="middle" x="1353.5" y="-349.8" font-family="Times,serif" font-size="14.00">class = Fatal</text>
</g>
<!-- 0&#45;&gt;16 -->
<g id="edge16" class="edge">
<title>0&#45;&gt;16</title>
<path fill="none" stroke="black" d="M1157.28,-469.53C1190.1,-455.3 1229.06,-438.43 1263.57,-423.47"/>
<polygon fill="black" stroke="black" points="1265.39,-426.49 1273.18,-419.31 1262.61,-420.07 1265.39,-426.49"/>
<text text-anchor="middle" x="1263.99" y="-438.86" font-family="Times,serif" font-size="14.00">False</text>
</g>
<!-- 2 -->
<g id="node3" class="node">
<title>2</title>
<polygon fill="#44a2e6" stroke="black" points="503.5,-306 343.5,-306 343.5,-223 503.5,-223 503.5,-306"/>
<text text-anchor="middle" x="423.5" y="-290.8" font-family="Times,serif" font-size="14.00">Weather.Condition &lt;= 1.5</text>
<text text-anchor="middle" x="423.5" y="-275.8" font-family="Times,serif" font-size="14.00">gini = 0.098</text>
<text text-anchor="middle" x="423.5" y="-260.8" font-family="Times,serif" font-size="14.00">samples = 15745</text>
<text text-anchor="middle" x="423.5" y="-245.8" font-family="Times,serif" font-size="14.00">value = [813, 14932]</text>
<text text-anchor="middle" x="423.5" y="-230.8" font-family="Times,serif" font-size="14.00">class = Non&#45;Fatal</text>
</g>
<!-- 1&#45;&gt;2 -->
<g id="edge2" class="edge">
<title>1&#45;&gt;2</title>
<path fill="none" stroke="black" d="M721.62,-356.1C659.52,-337.22 576.17,-311.9 513.4,-292.82"/>
<polygon fill="black" stroke="black" points="514.09,-289.37 503.5,-289.81 512.05,-296.07 514.09,-289.37"/>
</g>
<!-- 9 -->
<g id="node10" class="node">
<title>9</title>
<polygon fill="#3a9ee5" stroke="black" points="888.5,-306 728.5,-306 728.5,-223 888.5,-223 888.5,-306"/>
<text text-anchor="middle" x="808.5" y="-290.8" font-family="Times,serif" font-size="14.00">Weather.Condition &lt;= 1.5</text>
<text text-anchor="middle" x="808.5" y="-275.8" font-family="Times,serif" font-size="14.00">gini = 0.012</text>
<text text-anchor="middle" x="808.5" y="-260.8" font-family="Times,serif" font-size="14.00">samples = 9125</text>
<text text-anchor="middle" x="808.5" y="-245.8" font-family="Times,serif" font-size="14.00">value = [57, 9068]</text>
<text text-anchor="middle" x="808.5" y="-230.8" font-family="Times,serif" font-size="14.00">class = Non&#45;Fatal</text>
</g>
<!-- 1&#45;&gt;9 -->
<g id="edge9" class="edge">
<title>1&#45;&gt;9</title>
<path fill="none" stroke="black" d="M808.5,-341.91C808.5,-333.65 808.5,-324.86 808.5,-316.3"/>
<polygon fill="black" stroke="black" points="812,-316.02 808.5,-306.02 805,-316.02 812,-316.02"/>
</g>
<!-- 3 -->
<g id="node4" class="node">
<title>3</title>
<polygon fill="#43a2e6" stroke="black" points="271,-187 124,-187 124,-104 271,-104 271,-187"/>
<text text-anchor="middle" x="197.5" y="-171.8" font-family="Times,serif" font-size="14.00">Aircraft.damage &lt;= 1.5</text>
<text text-anchor="middle" x="197.5" y="-156.8" font-family="Times,serif" font-size="14.00">gini = 0.087</text>
<text text-anchor="middle" x="197.5" y="-141.8" font-family="Times,serif" font-size="14.00">samples = 14939</text>
<text text-anchor="middle" x="197.5" y="-126.8" font-family="Times,serif" font-size="14.00">value = [684, 14255]</text>
<text text-anchor="middle" x="197.5" y="-111.8" font-family="Times,serif" font-size="14.00">class = Non&#45;Fatal</text>
</g>
<!-- 2&#45;&gt;3 -->
<g id="edge3" class="edge">
<title>2&#45;&gt;3</title>
<path fill="none" stroke="black" d="M345.09,-222.91C324.12,-212.05 301.39,-200.28 280.19,-189.31"/>
<polygon fill="black" stroke="black" points="281.7,-186.15 271.21,-184.66 278.48,-192.37 281.7,-186.15"/>
</g>
<!-- 6 -->
<g id="node7" class="node">
<title>6</title>
<polygon fill="#5fb0ea" stroke="black" points="505.5,-187 341.5,-187 341.5,-104 505.5,-104 505.5,-187"/>
<text text-anchor="middle" x="423.5" y="-171.8" font-family="Times,serif" font-size="14.00">Number.of.Engines &lt;= 1.5</text>
<text text-anchor="middle" x="423.5" y="-156.8" font-family="Times,serif" font-size="14.00">gini = 0.269</text>
<text text-anchor="middle" x="423.5" y="-141.8" font-family="Times,serif" font-size="14.00">samples = 806</text>
<text text-anchor="middle" x="423.5" y="-126.8" font-family="Times,serif" font-size="14.00">value = [129, 677]</text>
<text text-anchor="middle" x="423.5" y="-111.8" font-family="Times,serif" font-size="14.00">class = Non&#45;Fatal</text>
</g>
<!-- 2&#45;&gt;6 -->
<g id="edge6" class="edge">
<title>2&#45;&gt;6</title>
<path fill="none" stroke="black" d="M423.5,-222.91C423.5,-214.65 423.5,-205.86 423.5,-197.3"/>
<polygon fill="black" stroke="black" points="427,-197.02 423.5,-187.02 420,-197.02 427,-197.02"/>
</g>
<!-- 4 -->
<g id="node5" class="node">
<title>4</title>
<polygon fill="#6eb7ec" stroke="black" points="113,-68 0,-68 0,0 113,0 113,-68"/>
<text text-anchor="middle" x="56.5" y="-52.8" font-family="Times,serif" font-size="14.00">gini = 0.333</text>
<text text-anchor="middle" x="56.5" y="-37.8" font-family="Times,serif" font-size="14.00">samples = 180</text>
<text text-anchor="middle" x="56.5" y="-22.8" font-family="Times,serif" font-size="14.00">value = [38, 142]</text>
<text text-anchor="middle" x="56.5" y="-7.8" font-family="Times,serif" font-size="14.00">class = Non&#45;Fatal</text>
</g>
<!-- 3&#45;&gt;4 -->
<g id="edge4" class="edge">
<title>3&#45;&gt;4</title>
<path fill="none" stroke="black" d="M145,-103.73C132.66,-94.15 119.55,-83.96 107.29,-74.44"/>
<polygon fill="black" stroke="black" points="109.42,-71.67 99.38,-68.3 105.13,-77.2 109.42,-71.67"/>
</g>
<!-- 5 -->
<g id="node6" class="node">
<title>5</title>
<polygon fill="#42a1e6" stroke="black" points="263.5,-68 131.5,-68 131.5,0 263.5,0 263.5,-68"/>
<text text-anchor="middle" x="197.5" y="-52.8" font-family="Times,serif" font-size="14.00">gini = 0.084</text>
<text text-anchor="middle" x="197.5" y="-37.8" font-family="Times,serif" font-size="14.00">samples = 14759</text>
<text text-anchor="middle" x="197.5" y="-22.8" font-family="Times,serif" font-size="14.00">value = [646, 14113]</text>
<text text-anchor="middle" x="197.5" y="-7.8" font-family="Times,serif" font-size="14.00">class = Non&#45;Fatal</text>
</g>
<!-- 3&#45;&gt;5 -->
<g id="edge5" class="edge">
<title>3&#45;&gt;5</title>
<path fill="none" stroke="black" d="M197.5,-103.73C197.5,-95.52 197.5,-86.86 197.5,-78.56"/>
<polygon fill="black" stroke="black" points="201,-78.3 197.5,-68.3 194,-78.3 201,-78.3"/>
</g>
<!-- 7 -->
<g id="node8" class="node">
<title>7</title>
<polygon fill="#66b3eb" stroke="black" points="401,-68 282,-68 282,0 401,0 401,-68"/>
<text text-anchor="middle" x="341.5" y="-52.8" font-family="Times,serif" font-size="14.00">gini = 0.302</text>
<text text-anchor="middle" x="341.5" y="-37.8" font-family="Times,serif" font-size="14.00">samples = 587</text>
<text text-anchor="middle" x="341.5" y="-22.8" font-family="Times,serif" font-size="14.00">value = [109, 478]</text>
<text text-anchor="middle" x="341.5" y="-7.8" font-family="Times,serif" font-size="14.00">class = Non&#45;Fatal</text>
</g>
<!-- 6&#45;&gt;7 -->
<g id="edge7" class="edge">
<title>6&#45;&gt;7</title>
<path fill="none" stroke="black" d="M392.97,-103.73C386.27,-94.79 379.18,-85.32 372.47,-76.36"/>
<polygon fill="black" stroke="black" points="375.23,-74.21 366.44,-68.3 369.63,-78.4 375.23,-74.21"/>
</g>
<!-- 8 -->
<g id="node9" class="node">
<title>8</title>
<polygon fill="#4da7e8" stroke="black" points="532,-68 419,-68 419,0 532,0 532,-68"/>
<text text-anchor="middle" x="475.5" y="-52.8" font-family="Times,serif" font-size="14.00">gini = 0.166</text>
<text text-anchor="middle" x="475.5" y="-37.8" font-family="Times,serif" font-size="14.00">samples = 219</text>
<text text-anchor="middle" x="475.5" y="-22.8" font-family="Times,serif" font-size="14.00">value = [20, 199]</text>
<text text-anchor="middle" x="475.5" y="-7.8" font-family="Times,serif" font-size="14.00">class = Non&#45;Fatal</text>
</g>
<!-- 6&#45;&gt;8 -->
<g id="edge8" class="edge">
<title>6&#45;&gt;8</title>
<path fill="none" stroke="black" d="M442.86,-103.73C446.93,-95.15 451.24,-86.09 455.34,-77.46"/>
<polygon fill="black" stroke="black" points="458.56,-78.83 459.69,-68.3 452.24,-75.83 458.56,-78.83"/>
</g>
<!-- 10 -->
<g id="node11" class="node">
<title>10</title>
<polygon fill="#3a9ee5" stroke="black" points="800,-187 627,-187 627,-104 800,-104 800,-187"/>
<text text-anchor="middle" x="713.5" y="-171.8" font-family="Times,serif" font-size="14.00">Broad.phase.of.flight &lt;= 9.5</text>
<text text-anchor="middle" x="713.5" y="-156.8" font-family="Times,serif" font-size="14.00">gini = 0.01</text>
<text text-anchor="middle" x="713.5" y="-141.8" font-family="Times,serif" font-size="14.00">samples = 8927</text>
<text text-anchor="middle" x="713.5" y="-126.8" font-family="Times,serif" font-size="14.00">value = [47, 8880]</text>
<text text-anchor="middle" x="713.5" y="-111.8" font-family="Times,serif" font-size="14.00">class = Non&#45;Fatal</text>
</g>
<!-- 9&#45;&gt;10 -->
<g id="edge10" class="edge">
<title>9&#45;&gt;10</title>
<path fill="none" stroke="black" d="M775.54,-222.91C768.25,-213.92 760.44,-204.32 752.92,-195.05"/>
<polygon fill="black" stroke="black" points="755.42,-192.58 746.4,-187.02 749.99,-196.99 755.42,-192.58"/>
</g>
<!-- 13 -->
<g id="node14" class="node">
<title>13</title>
<polygon fill="#44a2e6" stroke="black" points="991,-187 818,-187 818,-104 991,-104 991,-187"/>
<text text-anchor="middle" x="904.5" y="-171.8" font-family="Times,serif" font-size="14.00">Broad.phase.of.flight &lt;= 9.5</text>
<text text-anchor="middle" x="904.5" y="-156.8" font-family="Times,serif" font-size="14.00">gini = 0.096</text>
<text text-anchor="middle" x="904.5" y="-141.8" font-family="Times,serif" font-size="14.00">samples = 198</text>
<text text-anchor="middle" x="904.5" y="-126.8" font-family="Times,serif" font-size="14.00">value = [10, 188]</text>
<text text-anchor="middle" x="904.5" y="-111.8" font-family="Times,serif" font-size="14.00">class = Non&#45;Fatal</text>
</g>
<!-- 9&#45;&gt;13 -->
<g id="edge13" class="edge">
<title>9&#45;&gt;13</title>
<path fill="none" stroke="black" d="M841.81,-222.91C849.25,-213.83 857.22,-204.12 864.89,-194.77"/>
<polygon fill="black" stroke="black" points="867.61,-196.97 871.25,-187.02 862.2,-192.53 867.61,-196.97"/>
</g>
<!-- 11 -->
<g id="node12" class="node">
<title>11</title>
<polygon fill="#3a9de5" stroke="black" points="669,-68 550,-68 550,0 669,0 669,-68"/>
<text text-anchor="middle" x="609.5" y="-52.8" font-family="Times,serif" font-size="14.00">gini = 0.008</text>
<text text-anchor="middle" x="609.5" y="-37.8" font-family="Times,serif" font-size="14.00">samples = 8320</text>
<text text-anchor="middle" x="609.5" y="-22.8" font-family="Times,serif" font-size="14.00">value = [33, 8287]</text>
<text text-anchor="middle" x="609.5" y="-7.8" font-family="Times,serif" font-size="14.00">class = Non&#45;Fatal</text>
</g>
<!-- 10&#45;&gt;11 -->
<g id="edge11" class="edge">
<title>10&#45;&gt;11</title>
<path fill="none" stroke="black" d="M674.77,-103.73C666.11,-94.61 656.92,-84.93 648.26,-75.81"/>
<polygon fill="black" stroke="black" points="650.55,-73.14 641.13,-68.3 645.48,-77.96 650.55,-73.14"/>
</g>
<!-- 12 -->
<g id="node13" class="node">
<title>12</title>
<polygon fill="#3e9fe6" stroke="black" points="800,-68 687,-68 687,0 800,0 800,-68"/>
<text text-anchor="middle" x="743.5" y="-52.8" font-family="Times,serif" font-size="14.00">gini = 0.045</text>
<text text-anchor="middle" x="743.5" y="-37.8" font-family="Times,serif" font-size="14.00">samples = 607</text>
<text text-anchor="middle" x="743.5" y="-22.8" font-family="Times,serif" font-size="14.00">value = [14, 593]</text>
<text text-anchor="middle" x="743.5" y="-7.8" font-family="Times,serif" font-size="14.00">class = Non&#45;Fatal</text>
</g>
<!-- 10&#45;&gt;12 -->
<g id="edge12" class="edge">
<title>10&#45;&gt;12</title>
<path fill="none" stroke="black" d="M724.67,-103.73C726.97,-95.34 729.4,-86.47 731.72,-78.01"/>
<polygon fill="black" stroke="black" points="735.11,-78.87 734.38,-68.3 728.36,-77.02 735.11,-78.87"/>
</g>
<!-- 14 -->
<g id="node15" class="node">
<title>14</title>
<polygon fill="#41a1e6" stroke="black" points="931,-68 818,-68 818,0 931,0 931,-68"/>
<text text-anchor="middle" x="874.5" y="-52.8" font-family="Times,serif" font-size="14.00">gini = 0.074</text>
<text text-anchor="middle" x="874.5" y="-37.8" font-family="Times,serif" font-size="14.00">samples = 181</text>
<text text-anchor="middle" x="874.5" y="-22.8" font-family="Times,serif" font-size="14.00">value = [7, 174]</text>
<text text-anchor="middle" x="874.5" y="-7.8" font-family="Times,serif" font-size="14.00">class = Non&#45;Fatal</text>
</g>
<!-- 13&#45;&gt;14 -->
<g id="edge14" class="edge">
<title>13&#45;&gt;14</title>
<path fill="none" stroke="black" d="M893.33,-103.73C891.03,-95.34 888.6,-86.47 886.28,-78.01"/>
<polygon fill="black" stroke="black" points="889.64,-77.02 883.62,-68.3 882.89,-78.87 889.64,-77.02"/>
</g>
<!-- 15 -->
<g id="node16" class="node">
<title>15</title>
<polygon fill="#63b2eb" stroke="black" points="1062,-68 949,-68 949,0 1062,0 1062,-68"/>
<text text-anchor="middle" x="1005.5" y="-52.8" font-family="Times,serif" font-size="14.00">gini = 0.291</text>
<text text-anchor="middle" x="1005.5" y="-37.8" font-family="Times,serif" font-size="14.00">samples = 17</text>
<text text-anchor="middle" x="1005.5" y="-22.8" font-family="Times,serif" font-size="14.00">value = [3, 14]</text>
<text text-anchor="middle" x="1005.5" y="-7.8" font-family="Times,serif" font-size="14.00">class = Non&#45;Fatal</text>
</g>
<!-- 13&#45;&gt;15 -->
<g id="edge15" class="edge">
<title>13&#45;&gt;15</title>
<path fill="none" stroke="black" d="M942.11,-103.73C950.52,-94.61 959.45,-84.93 967.86,-75.81"/>
<polygon fill="black" stroke="black" points="970.58,-78.02 974.79,-68.3 965.43,-73.28 970.58,-78.02"/>
</g>
<!-- 17 -->
<g id="node18" class="node">
<title>17</title>
<polygon fill="#f9e4d4" stroke="black" points="1440,-306 1267,-306 1267,-223 1440,-223 1440,-306"/>
<text text-anchor="middle" x="1353.5" y="-290.8" font-family="Times,serif" font-size="14.00">Broad.phase.of.flight &lt;= 8.5</text>
<text text-anchor="middle" x="1353.5" y="-275.8" font-family="Times,serif" font-size="14.00">gini = 0.493</text>
<text text-anchor="middle" x="1353.5" y="-260.8" font-family="Times,serif" font-size="14.00">samples = 5774</text>
<text text-anchor="middle" x="1353.5" y="-245.8" font-family="Times,serif" font-size="14.00">value = [3237, 2537]</text>
<text text-anchor="middle" x="1353.5" y="-230.8" font-family="Times,serif" font-size="14.00">class = Fatal</text>
</g>
<!-- 16&#45;&gt;17 -->
<g id="edge17" class="edge">
<title>16&#45;&gt;17</title>
<path fill="none" stroke="black" d="M1353.5,-341.91C1353.5,-333.65 1353.5,-324.86 1353.5,-316.3"/>
<polygon fill="black" stroke="black" points="1357,-316.02 1353.5,-306.02 1350,-316.02 1357,-316.02"/>
</g>
<!-- 24 -->
<g id="node25" class="node">
<title>24</title>
<polygon fill="#e99457" stroke="black" points="1800,-306 1627,-306 1627,-223 1800,-223 1800,-306"/>
<text text-anchor="middle" x="1713.5" y="-290.8" font-family="Times,serif" font-size="14.00">Broad.phase.of.flight &lt;= 3.5</text>
<text text-anchor="middle" x="1713.5" y="-275.8" font-family="Times,serif" font-size="14.00">gini = 0.227</text>
<text text-anchor="middle" x="1713.5" y="-260.8" font-family="Times,serif" font-size="14.00">samples = 1898</text>
<text text-anchor="middle" x="1713.5" y="-245.8" font-family="Times,serif" font-size="14.00">value = [1650, 248]</text>
<text text-anchor="middle" x="1713.5" y="-230.8" font-family="Times,serif" font-size="14.00">class = Fatal</text>
</g>
<!-- 16&#45;&gt;24 -->
<g id="edge24" class="edge">
<title>16&#45;&gt;24</title>
<path fill="none" stroke="black" d="M1433.84,-356.39C1488.01,-338.78 1559.75,-315.47 1617.01,-296.86"/>
<polygon fill="black" stroke="black" points="1618.37,-300.1 1626.8,-293.68 1616.21,-293.44 1618.37,-300.1"/>
</g>
<!-- 18 -->
<g id="node19" class="node">
<title>18</title>
<polygon fill="#f7d9c3" stroke="black" points="1345,-187 1172,-187 1172,-104 1345,-104 1345,-187"/>
<text text-anchor="middle" x="1258.5" y="-171.8" font-family="Times,serif" font-size="14.00">Broad.phase.of.flight &lt;= 3.5</text>
<text text-anchor="middle" x="1258.5" y="-156.8" font-family="Times,serif" font-size="14.00">gini = 0.484</text>
<text text-anchor="middle" x="1258.5" y="-141.8" font-family="Times,serif" font-size="14.00">samples = 5193</text>
<text text-anchor="middle" x="1258.5" y="-126.8" font-family="Times,serif" font-size="14.00">value = [3064, 2129]</text>
<text text-anchor="middle" x="1258.5" y="-111.8" font-family="Times,serif" font-size="14.00">class = Fatal</text>
</g>
<!-- 17&#45;&gt;18 -->
<g id="edge18" class="edge">
<title>17&#45;&gt;18</title>
<path fill="none" stroke="black" d="M1320.54,-222.91C1313.25,-213.92 1305.44,-204.32 1297.92,-195.05"/>
<polygon fill="black" stroke="black" points="1300.42,-192.58 1291.4,-187.02 1294.99,-196.99 1300.42,-192.58"/>
</g>
<!-- 21 -->
<g id="node22" class="node">
<title>21</title>
<polygon fill="#8dc7f0" stroke="black" points="1536,-187 1363,-187 1363,-104 1536,-104 1536,-187"/>
<text text-anchor="middle" x="1449.5" y="-171.8" font-family="Times,serif" font-size="14.00">Broad.phase.of.flight &lt;= 9.5</text>
<text text-anchor="middle" x="1449.5" y="-156.8" font-family="Times,serif" font-size="14.00">gini = 0.418</text>
<text text-anchor="middle" x="1449.5" y="-141.8" font-family="Times,serif" font-size="14.00">samples = 581</text>
<text text-anchor="middle" x="1449.5" y="-126.8" font-family="Times,serif" font-size="14.00">value = [173, 408]</text>
<text text-anchor="middle" x="1449.5" y="-111.8" font-family="Times,serif" font-size="14.00">class = Non&#45;Fatal</text>
</g>
<!-- 17&#45;&gt;21 -->
<g id="edge21" class="edge">
<title>17&#45;&gt;21</title>
<path fill="none" stroke="black" d="M1386.81,-222.91C1394.25,-213.83 1402.22,-204.12 1409.89,-194.77"/>
<polygon fill="black" stroke="black" points="1412.61,-196.97 1416.25,-187.02 1407.2,-192.53 1412.61,-196.97"/>
</g>
<!-- 19 -->
<g id="node20" class="node">
<title>19</title>
<polygon fill="#dbedfa" stroke="black" points="1199,-68 1080,-68 1080,0 1199,0 1199,-68"/>
<text text-anchor="middle" x="1139.5" y="-52.8" font-family="Times,serif" font-size="14.00">gini = 0.495</text>
<text text-anchor="middle" x="1139.5" y="-37.8" font-family="Times,serif" font-size="14.00">samples = 1383</text>
<text text-anchor="middle" x="1139.5" y="-22.8" font-family="Times,serif" font-size="14.00">value = [622, 761]</text>
<text text-anchor="middle" x="1139.5" y="-7.8" font-family="Times,serif" font-size="14.00">class = Non&#45;Fatal</text>
</g>
<!-- 18&#45;&gt;19 -->
<g id="edge19" class="edge">
<title>18&#45;&gt;19</title>
<path fill="none" stroke="black" d="M1214.19,-103.73C1204.08,-94.42 1193.34,-84.54 1183.25,-75.26"/>
<polygon fill="black" stroke="black" points="1185.42,-72.5 1175.69,-68.3 1180.68,-77.65 1185.42,-72.5"/>
</g>
<!-- 20 -->
<g id="node21" class="node">
<title>20</title>
<polygon fill="#f4c8a8" stroke="black" points="1349.5,-68 1217.5,-68 1217.5,0 1349.5,0 1349.5,-68"/>
<text text-anchor="middle" x="1283.5" y="-52.8" font-family="Times,serif" font-size="14.00">gini = 0.46</text>
<text text-anchor="middle" x="1283.5" y="-37.8" font-family="Times,serif" font-size="14.00">samples = 3810</text>
<text text-anchor="middle" x="1283.5" y="-22.8" font-family="Times,serif" font-size="14.00">value = [2442, 1368]</text>
<text text-anchor="middle" x="1283.5" y="-7.8" font-family="Times,serif" font-size="14.00">class = Fatal</text>
</g>
<!-- 18&#45;&gt;20 -->
<g id="edge20" class="edge">
<title>18&#45;&gt;20</title>
<path fill="none" stroke="black" d="M1267.81,-103.73C1269.7,-95.43 1271.7,-86.67 1273.62,-78.28"/>
<polygon fill="black" stroke="black" points="1277.08,-78.83 1275.9,-68.3 1270.26,-77.27 1277.08,-78.83"/>
</g>
<!-- 22 -->
<g id="node23" class="node">
<title>22</title>
<polygon fill="#70b8ec" stroke="black" points="1481,-68 1368,-68 1368,0 1481,0 1481,-68"/>
<text text-anchor="middle" x="1424.5" y="-52.8" font-family="Times,serif" font-size="14.00">gini = 0.341</text>
<text text-anchor="middle" x="1424.5" y="-37.8" font-family="Times,serif" font-size="14.00">samples = 418</text>
<text text-anchor="middle" x="1424.5" y="-22.8" font-family="Times,serif" font-size="14.00">value = [91, 327]</text>
<text text-anchor="middle" x="1424.5" y="-7.8" font-family="Times,serif" font-size="14.00">class = Non&#45;Fatal</text>
</g>
<!-- 21&#45;&gt;22 -->
<g id="edge22" class="edge">
<title>21&#45;&gt;22</title>
<path fill="none" stroke="black" d="M1440.19,-103.73C1438.3,-95.43 1436.3,-86.67 1434.38,-78.28"/>
<polygon fill="black" stroke="black" points="1437.74,-77.27 1432.1,-68.3 1430.92,-78.83 1437.74,-77.27"/>
</g>
<!-- 23 -->
<g id="node24" class="node">
<title>23</title>
<polygon fill="#fffdfd" stroke="black" points="1604,-68 1499,-68 1499,0 1604,0 1604,-68"/>
<text text-anchor="middle" x="1551.5" y="-52.8" font-family="Times,serif" font-size="14.00">gini = 0.5</text>
<text text-anchor="middle" x="1551.5" y="-37.8" font-family="Times,serif" font-size="14.00">samples = 163</text>
<text text-anchor="middle" x="1551.5" y="-22.8" font-family="Times,serif" font-size="14.00">value = [82, 81]</text>
<text text-anchor="middle" x="1551.5" y="-7.8" font-family="Times,serif" font-size="14.00">class = Fatal</text>
</g>
<!-- 21&#45;&gt;23 -->
<g id="edge23" class="edge">
<title>21&#45;&gt;23</title>
<path fill="none" stroke="black" d="M1487.48,-103.73C1495.98,-94.61 1504.99,-84.93 1513.49,-75.81"/>
<polygon fill="black" stroke="black" points="1516.23,-78 1520.48,-68.3 1511.1,-73.23 1516.23,-78"/>
</g>
<!-- 25 -->
<g id="node26" class="node">
<title>25</title>
<polygon fill="#eca26e" stroke="black" points="1800,-187 1627,-187 1627,-104 1800,-104 1800,-187"/>
<text text-anchor="middle" x="1713.5" y="-171.8" font-family="Times,serif" font-size="14.00">Broad.phase.of.flight &lt;= 2.0</text>
<text text-anchor="middle" x="1713.5" y="-156.8" font-family="Times,serif" font-size="14.00">gini = 0.332</text>
<text text-anchor="middle" x="1713.5" y="-141.8" font-family="Times,serif" font-size="14.00">samples = 162</text>
<text text-anchor="middle" x="1713.5" y="-126.8" font-family="Times,serif" font-size="14.00">value = [128, 34]</text>
<text text-anchor="middle" x="1713.5" y="-111.8" font-family="Times,serif" font-size="14.00">class = Fatal</text>
</g>
<!-- 24&#45;&gt;25 -->
<g id="edge25" class="edge">
<title>24&#45;&gt;25</title>
<path fill="none" stroke="black" d="M1713.5,-222.91C1713.5,-214.65 1713.5,-205.86 1713.5,-197.3"/>
<polygon fill="black" stroke="black" points="1717,-197.02 1713.5,-187.02 1710,-197.02 1717,-197.02"/>
</g>
<!-- 28 -->
<g id="node29" class="node">
<title>28</title>
<polygon fill="#e99355" stroke="black" points="2026,-187 1853,-187 1853,-104 2026,-104 2026,-187"/>
<text text-anchor="middle" x="1939.5" y="-171.8" font-family="Times,serif" font-size="14.00">Broad.phase.of.flight &lt;= 5.5</text>
<text text-anchor="middle" x="1939.5" y="-156.8" font-family="Times,serif" font-size="14.00">gini = 0.216</text>
<text text-anchor="middle" x="1939.5" y="-141.8" font-family="Times,serif" font-size="14.00">samples = 1736</text>
<text text-anchor="middle" x="1939.5" y="-126.8" font-family="Times,serif" font-size="14.00">value = [1522, 214]</text>
<text text-anchor="middle" x="1939.5" y="-111.8" font-family="Times,serif" font-size="14.00">class = Fatal</text>
</g>
<!-- 24&#45;&gt;28 -->
<g id="edge28" class="edge">
<title>24&#45;&gt;28</title>
<path fill="none" stroke="black" d="M1791.91,-222.91C1811.37,-212.83 1832.34,-201.98 1852.19,-191.7"/>
<polygon fill="black" stroke="black" points="1853.96,-194.73 1861.23,-187.02 1850.74,-188.51 1853.96,-194.73"/>
</g>
<!-- 26 -->
<g id="node27" class="node">
<title>26</title>
<polygon fill="#9ccef2" stroke="black" points="1735,-68 1622,-68 1622,0 1735,0 1735,-68"/>
<text text-anchor="middle" x="1678.5" y="-52.8" font-family="Times,serif" font-size="14.00">gini = 0.444</text>
<text text-anchor="middle" x="1678.5" y="-37.8" font-family="Times,serif" font-size="14.00">samples = 3</text>
<text text-anchor="middle" x="1678.5" y="-22.8" font-family="Times,serif" font-size="14.00">value = [1, 2]</text>
<text text-anchor="middle" x="1678.5" y="-7.8" font-family="Times,serif" font-size="14.00">class = Non&#45;Fatal</text>
</g>
<!-- 25&#45;&gt;26 -->
<g id="edge26" class="edge">
<title>25&#45;&gt;26</title>
<path fill="none" stroke="black" d="M1700.47,-103.73C1697.79,-95.34 1694.95,-86.47 1692.25,-78.01"/>
<polygon fill="black" stroke="black" points="1695.52,-76.76 1689.14,-68.3 1688.85,-78.89 1695.52,-76.76"/>
</g>
<!-- 27 -->
<g id="node28" class="node">
<title>27</title>
<polygon fill="#eca16b" stroke="black" points="1865.5,-68 1753.5,-68 1753.5,0 1865.5,0 1865.5,-68"/>
<text text-anchor="middle" x="1809.5" y="-52.8" font-family="Times,serif" font-size="14.00">gini = 0.322</text>
<text text-anchor="middle" x="1809.5" y="-37.8" font-family="Times,serif" font-size="14.00">samples = 159</text>
<text text-anchor="middle" x="1809.5" y="-22.8" font-family="Times,serif" font-size="14.00">value = [127, 32]</text>
<text text-anchor="middle" x="1809.5" y="-7.8" font-family="Times,serif" font-size="14.00">class = Fatal</text>
</g>
<!-- 25&#45;&gt;27 -->
<g id="edge27" class="edge">
<title>25&#45;&gt;27</title>
<path fill="none" stroke="black" d="M1749.25,-103.73C1757.16,-94.7 1765.56,-85.12 1773.48,-76.08"/>
<polygon fill="black" stroke="black" points="1776.35,-78.13 1780.31,-68.3 1771.08,-73.51 1776.35,-78.13"/>
</g>
<!-- 29 -->
<g id="node30" class="node">
<title>29</title>
<polygon fill="#e88f4f" stroke="black" points="1995.5,-68 1883.5,-68 1883.5,0 1995.5,0 1995.5,-68"/>
<text text-anchor="middle" x="1939.5" y="-52.8" font-family="Times,serif" font-size="14.00">gini = 0.183</text>
<text text-anchor="middle" x="1939.5" y="-37.8" font-family="Times,serif" font-size="14.00">samples = 913</text>
<text text-anchor="middle" x="1939.5" y="-22.8" font-family="Times,serif" font-size="14.00">value = [820, 93]</text>
<text text-anchor="middle" x="1939.5" y="-7.8" font-family="Times,serif" font-size="14.00">class = Fatal</text>
</g>
<!-- 28&#45;&gt;29 -->
<g id="edge29" class="edge">
<title>28&#45;&gt;29</title>
<path fill="none" stroke="black" d="M1939.5,-103.73C1939.5,-95.52 1939.5,-86.86 1939.5,-78.56"/>
<polygon fill="black" stroke="black" points="1943,-78.3 1939.5,-68.3 1936,-78.3 1943,-78.3"/>
</g>
<!-- 30 -->
<g id="node31" class="node">
<title>30</title>
<polygon fill="#e9975b" stroke="black" points="2133,-68 2014,-68 2014,0 2133,0 2133,-68"/>
<text text-anchor="middle" x="2073.5" y="-52.8" font-family="Times,serif" font-size="14.00">gini = 0.251</text>
<text text-anchor="middle" x="2073.5" y="-37.8" font-family="Times,serif" font-size="14.00">samples = 823</text>
<text text-anchor="middle" x="2073.5" y="-22.8" font-family="Times,serif" font-size="14.00">value = [702, 121]</text>
<text text-anchor="middle" x="2073.5" y="-7.8" font-family="Times,serif" font-size="14.00">class = Fatal</text>
</g>
<!-- 28&#45;&gt;30 -->
<g id="edge30" class="edge">
<title>28&#45;&gt;30</title>
<path fill="none" stroke="black" d="M1989.4,-103.73C2001,-94.24 2013.35,-84.16 2024.9,-74.72"/>
<polygon fill="black" stroke="black" points="2027.22,-77.34 2032.75,-68.3 2022.79,-71.92 2027.22,-77.34"/>
</g>
</g>
</svg>
